<svg xmlns="http://www.w3.org/2000/svg" xmlns:xlink="http://www.w3.org/1999/xlink" width="169.625" height="38.498" viewBox="0 0 169.625 38.498"><defs><linearGradient id="a" x1="-4.643" y1="3.085" x2="-4.644" y2="3.079" gradientUnits="objectBoundingBox"><stop offset="0" stop-color="#1c2a28"/><stop offset="1" stop-color="#214743"/></linearGradient></defs><g transform="translate(-5191.667 -12598)"><path d="M-5771.664-5923v21.959h-6.635l-3.3,4.661h15.276V-5923Z" transform="translate(10993.495 18521)" fill="#214743"/><path d="M-5906.5-5923v26.62h5.34V-5923Z" transform="translate(11098.184 18521)" fill="url(#a)"/><path d="M-5888.665-5908.1l-12.4-14.9h-5.34l17.671,23.8,9.726-12.655v-8.35Z" transform="translate(11098.1 18521)" fill="#214743"/><path d="M-5625.2-5898.2h4v18.577h-4Z" transform="translate(10862.404 18500.213)" fill="#214743"/><path d="M-5533.739-5900.159a8.8,8.8,0,0,1,2.169.922,16.207,16.207,0,0,1,1.5,1.1,6.356,6.356,0,0,1,.939.923l.292.389-2.525,2.524-.209-.292a5.694,5.694,0,0,0-.616-.631,5.5,5.5,0,0,0-1.036-.793,6.135,6.135,0,0,0-1.457-.631,6.006,6.006,0,0,0-7.622,3.771,6.269,6.269,0,0,0-.324,2.04,5.97,5.97,0,0,0,5.842,6.1h.259a7.113,7.113,0,0,0,1.941-.275,6.357,6.357,0,0,0,1.521-.664,8.11,8.11,0,0,0,1.069-.777,4.465,4.465,0,0,0,.679-.679l.21-.275,2.4,2.524a3.959,3.959,0,0,1-.324.4,9.894,9.894,0,0,1-.939.907,10,10,0,0,1-1.569,1.133,10.484,10.484,0,0,1-12.153-1.553,9.2,9.2,0,0,1-2.913-6.845,9.174,9.174,0,0,1,2.929-6.829,10.353,10.353,0,0,1,9.936-2.492Z" transform="translate(10796.528 18502.172)" fill="#214743"/><path d="M-5371.267-5883.2v3.576H-5385.2V-5898.2h13.658v3.593h-9.677v3.722h7.541v3.576h-7.541v4.111Z" transform="translate(10661.242 18500.215)" fill="#214743"/><path d="M-5242.7-5879.623V-5898.2h1.99v16.717h9.548v1.844Z" transform="translate(10541.803 18500.215)" fill="#214743"/><path d="M-5117.436-5883.352a9.537,9.537,0,0,1-13.5.017,9.537,9.537,0,0,1-.017-13.5,9.538,9.538,0,0,1,13.5-.017,9.636,9.636,0,0,1,2.816,6.765A9.341,9.341,0,0,1-5117.436-5883.352Zm-12.137-1.294a7.636,7.636,0,0,0,10.745,0,7.527,7.527,0,0,0,2.185-5.469,7.43,7.43,0,0,0-2.2-5.47,7.639,7.639,0,0,0-10.745,0,7.47,7.47,0,0,0-2.185,5.47A7.431,7.431,0,0,0-5129.572-5884.646Z" transform="translate(10450.473 18501.418)" fill="#214743"/><path d="M-4962.224-5897.022a9.6,9.6,0,0,1,9.466-2.4,8.148,8.148,0,0,1,2.137.955,12.457,12.457,0,0,1,1.489,1.133,6.532,6.532,0,0,1,.922.971l.291.4-1.327,1.181c-.048-.081-.129-.21-.226-.356a6.253,6.253,0,0,0-.712-.761,6.985,6.985,0,0,0-2.994-1.731,7.3,7.3,0,0,0-2.282-.356,7.232,7.232,0,0,0-5.373,2.217,7.474,7.474,0,0,0-2.185,5.47,7.487,7.487,0,0,0,2.185,5.47,7.294,7.294,0,0,0,5.373,2.217,8.369,8.369,0,0,0,2.282-.324,7.5,7.5,0,0,0,1.813-.777,13.888,13.888,0,0,0,1.262-.923,4.582,4.582,0,0,0,.777-.809l.243-.324,1.327,1.2a4.012,4.012,0,0,1-.324.4,8.341,8.341,0,0,1-.955.906,12.278,12.278,0,0,1-1.553,1.181,8.353,8.353,0,0,1-2.136.922,9.243,9.243,0,0,1-2.735.4,9.246,9.246,0,0,1-6.764-2.783,9.248,9.248,0,0,1-2.784-6.749,9.2,9.2,0,0,1,2.784-6.748Z" transform="translate(10309.049 18501.561)" fill="#214743"/><g transform="translate(5191.667 12630.154)"><path d="M3.313,202.632a2.861,2.861,0,0,0-.744-.307,9.208,9.208,0,0,1-.874-.291,1.673,1.673,0,0,1-.744-.566,1.5,1.5,0,0,1-.307-.987,1.659,1.659,0,0,1,.583-1.262,2.264,2.264,0,0,1,1.537-.518,3.428,3.428,0,0,1,.712.081,2.8,2.8,0,0,1,.566.21,4.071,4.071,0,0,1,.388.243,1.123,1.123,0,0,1,.243.21l.081.081-.777.825-.146-.146a1.732,1.732,0,0,0-.388-.227,1.308,1.308,0,0,0-.6-.146.888.888,0,0,0-.6.194.6.6,0,0,0-.227.469.522.522,0,0,0,.307.485,2.86,2.86,0,0,0,.744.307q.437.121.874.291a1.59,1.59,0,0,1,.744.566,1.5,1.5,0,0,1,.307.987,1.747,1.747,0,0,1-.615,1.375,2.471,2.471,0,0,1-1.683.534,3.594,3.594,0,0,1-.825-.1,2.468,2.468,0,0,1-.647-.243,3.675,3.675,0,0,1-.453-.291A1.5,1.5,0,0,1,.5,204.17l-.1-.113.777-.777c.032.049.1.1.162.178a2.248,2.248,0,0,0,.485.291,1.611,1.611,0,0,0,.777.178,1.119,1.119,0,0,0,.728-.227.7.7,0,0,0,.259-.566A.479.479,0,0,0,3.313,202.632Z" transform="translate(-0.4 -198.7)" fill="#e5b370"/><path d="M39.874,199.5v1.165H38.142v4.9H36.848v-4.9H35.1V199.5Z" transform="translate(-29.485 -199.371)" fill="#e5b370"/><path d="M70.955,199.722a3.446,3.446,0,0,1,4.693,0,2.952,2.952,0,0,1,.955,2.233,3.011,3.011,0,0,1-.955,2.233,3.446,3.446,0,0,1-4.693,0A3.011,3.011,0,0,1,70,201.956,2.952,2.952,0,0,1,70.955,199.722Zm.955,3.657a1.915,1.915,0,0,0,2.751,0,2.073,2.073,0,0,0,0-2.848,1.915,1.915,0,0,0-2.751,0,2.073,2.073,0,0,0,0,2.848Z" transform="translate(-58.737 -198.784)" fill="#e5b370"/><path d="M124.557,199.5a2.151,2.151,0,0,1,1.554.583,2.032,2.032,0,0,1,0,2.913,2.151,2.151,0,0,1-1.554.583h-1.246v1.99H122V199.5Zm-1.246,1.181v1.732h1.214a.919.919,0,0,0,.647-.243.86.86,0,0,0,0-1.23.932.932,0,0,0-.647-.259Z" transform="translate(-102.322 -199.371)" fill="#e5b370"/><path d="M176.413,202.632a2.861,2.861,0,0,0-.744-.307,9.208,9.208,0,0,1-.874-.291,1.673,1.673,0,0,1-.744-.566,1.5,1.5,0,0,1-.307-.987,1.659,1.659,0,0,1,.583-1.262,2.264,2.264,0,0,1,1.537-.518,3.428,3.428,0,0,1,.712.081,2.794,2.794,0,0,1,.566.21,4.072,4.072,0,0,1,.388.243,1.122,1.122,0,0,1,.243.21l.081.081-.777.825-.146-.146a1.733,1.733,0,0,0-.388-.227,1.308,1.308,0,0,0-.6-.146.888.888,0,0,0-.6.194.6.6,0,0,0-.227.469.522.522,0,0,0,.307.485,2.86,2.86,0,0,0,.744.307q.437.121.874.291a1.59,1.59,0,0,1,.744.566,1.5,1.5,0,0,1,.307.987,1.747,1.747,0,0,1-.615,1.375,2.471,2.471,0,0,1-1.683.534,3.594,3.594,0,0,1-.825-.1,2.468,2.468,0,0,1-.647-.243,3.676,3.676,0,0,1-.453-.291,1.5,1.5,0,0,1-.275-.243l-.1-.113.777-.777c.032.049.1.1.162.178a2.248,2.248,0,0,0,.485.291,1.611,1.611,0,0,0,.777.178,1.119,1.119,0,0,0,.728-.227.7.7,0,0,0,.259-.566A.53.53,0,0,0,176.413,202.632Z" transform="translate(-145.488 -198.7)" fill="#e5b370"/><path d="M217.463,204.4v1.165H212.9V199.5h4.466v1.165h-3.156v1.214h2.476v1.165h-2.476v1.343h3.253Z" transform="translate(-178.512 -199.371)" fill="#e5b370"/><path d="M250.009,204.144l-.518,1.424H248.1l2.4-6.068h1.392l2.4,6.068H252.89l-.518-1.424Zm1.165-3.123-.744,1.99H251.9Z" transform="translate(-208.016 -199.371)" fill="#e5b370"/><path d="M295.132,199.5h2.686a2.024,2.024,0,0,1,1.489.583,1.928,1.928,0,0,1,.583,1.424,1.874,1.874,0,0,1-.113.68,1.725,1.725,0,0,1-.275.518,3.222,3.222,0,0,1-.307.34,1.088,1.088,0,0,1-.275.194l-.113.065,1.295,2.3h-1.392l-1.165-2.12h-1.133v2.12H295.1v-6.1Zm3.237,1.408a.78.78,0,0,0-.583-.227h-1.343v1.6h1.343a.793.793,0,0,0,.583-.227.725.725,0,0,0,.243-.55A.953.953,0,0,0,298.369,200.908Z" transform="translate(-247.41 -199.371)" fill="#e5b370"/><path d="M339.207,198.913a2.42,2.42,0,0,1,.712.307,4.2,4.2,0,0,1,.485.356,1.807,1.807,0,0,1,.307.307l.1.129-.825.825a.953.953,0,0,1-.065-.1,1.794,1.794,0,0,0-.194-.21,1.877,1.877,0,0,0-.34-.259,1.976,1.976,0,0,0-.485-.21,1.931,1.931,0,0,0-.6-.1,1.979,1.979,0,0,0-1.424.566,1.915,1.915,0,0,0-.566,1.424,1.979,1.979,0,0,0,.566,1.424,1.915,1.915,0,0,0,1.424.566,1.983,1.983,0,0,0,.631-.1,2.462,2.462,0,0,0,.5-.21,2.864,2.864,0,0,0,.356-.259,1.483,1.483,0,0,0,.227-.227l.065-.081.777.825c-.016.032-.065.081-.1.129-.049.049-.146.146-.307.291a3.01,3.01,0,0,1-.518.372,2.7,2.7,0,0,1-.712.291,3.433,3.433,0,0,1-.922.129,3.275,3.275,0,0,1-2.346-.922,3.089,3.089,0,0,1,0-4.466,3.248,3.248,0,0,1,2.346-.922A3.394,3.394,0,0,1,339.207,198.913Z" transform="translate(-280.853 -198.784)" fill="#e5b370"/><path d="M386.511,205.668h-1.295v-2.476h-2.605v2.476H381.3V199.6h1.311v2.427h2.605V199.6h1.295Z" transform="translate(-319.661 -199.454)" fill="#e5b370"/><path d="M427,199.5h1.311v6.068H427Z" transform="translate(-357.966 -199.371)" fill="#e5b370"/><path d="M453.737,199.5v6.068H452.6l-2.994-3.851v3.851H448.3V199.5h1.133l2.994,3.868V199.5Z" transform="translate(-375.819 -199.371)" fill="#e5b370"/><path d="M499.055,201.78v2.249c-.016.032-.065.065-.113.129-.049.049-.162.146-.324.291a3.071,3.071,0,0,1-.534.356,3.831,3.831,0,0,1-.744.275,3.648,3.648,0,0,1-.939.129,3.275,3.275,0,0,1-2.346-.922,3.089,3.089,0,0,1,0-4.466,3.248,3.248,0,0,1,2.346-.922,3.313,3.313,0,0,1,.906.129,2.418,2.418,0,0,1,.712.307,4.2,4.2,0,0,1,.485.356,1.806,1.806,0,0,1,.307.307l.1.129-.825.825a.969.969,0,0,1-.065-.1,1.792,1.792,0,0,0-.194-.21,1.877,1.877,0,0,0-.34-.259,1.975,1.975,0,0,0-.486-.21,1.932,1.932,0,0,0-.6-.1,1.979,1.979,0,0,0-1.424.566,1.915,1.915,0,0,0-.566,1.424,1.979,1.979,0,0,0,.566,1.424,1.915,1.915,0,0,0,1.424.566,2.18,2.18,0,0,0,.744-.113,1.534,1.534,0,0,0,.469-.243l.13-.113v-.825H496.66v-.955h2.395Z" transform="translate(-413.369 -198.868)" fill="#e5b370"/><path d="M540.31,229.794a.7.7,0,0,1,.971,0,.629.629,0,0,1,.21.453.574.574,0,0,1-.21.453.7.7,0,0,1-.971,0,.593.593,0,0,1,0-.906Z" transform="translate(-452.763 -224.6)" fill="#e5b370"/><path d="M573.913,202.632a2.86,2.86,0,0,0-.744-.307,9.208,9.208,0,0,1-.874-.291,1.672,1.672,0,0,1-.744-.566,1.5,1.5,0,0,1-.307-.987,1.659,1.659,0,0,1,.583-1.262,2.264,2.264,0,0,1,1.537-.518,3.428,3.428,0,0,1,.712.081,2.8,2.8,0,0,1,.566.21,4.081,4.081,0,0,1,.388.243,1.122,1.122,0,0,1,.243.21l.081.081-.777.825-.146-.146a1.732,1.732,0,0,0-.388-.227,1.308,1.308,0,0,0-.6-.146.888.888,0,0,0-.6.194.6.6,0,0,0-.227.469.522.522,0,0,0,.307.485,2.861,2.861,0,0,0,.744.307q.437.121.874.291a1.59,1.59,0,0,1,.744.566,1.5,1.5,0,0,1,.307.987,1.747,1.747,0,0,1-.615,1.375,2.471,2.471,0,0,1-1.683.534,3.594,3.594,0,0,1-.825-.1,2.466,2.466,0,0,1-.647-.243,3.668,3.668,0,0,1-.453-.291,1.5,1.5,0,0,1-.275-.243l-.1-.113.777-.777c.032.049.1.1.162.178a2.245,2.245,0,0,0,.485.291,1.611,1.611,0,0,0,.777.178,1.119,1.119,0,0,0,.728-.227.7.7,0,0,0,.259-.566A.479.479,0,0,0,573.913,202.632Z" transform="translate(-478.663 -198.7)" fill="#e5b370"/><path d="M610.458,199.5v1.165h-1.731v4.9h-1.295v-4.9H605.7V199.5Z" transform="translate(-507.747 -199.371)" fill="#e5b370"/><path d="M639.209,204.144l-.518,1.424H637.3l2.4-6.068h1.392l2.395,6.068H642.09l-.518-1.424Zm1.165-3.123-.744,1.99H641.1Z" transform="translate(-534.234 -199.371)" fill="#e5b370"/><path d="M684.332,199.5h2.686a2.025,2.025,0,0,1,1.489.583,1.929,1.929,0,0,1,.583,1.424,1.872,1.872,0,0,1-.113.68,1.725,1.725,0,0,1-.275.518,3.2,3.2,0,0,1-.307.34,1.088,1.088,0,0,1-.275.194l-.113.065,1.295,2.3h-1.392l-1.165-2.12h-1.133v2.12H684.3v-6.1Zm3.236,1.408a.78.78,0,0,0-.583-.227h-1.343v1.6h1.343a.793.793,0,0,0,.583-.227.725.725,0,0,0,.243-.55A.8.8,0,0,0,687.569,200.908Z" transform="translate(-573.628 -199.371)" fill="#e5b370"/><path d="M726.358,199.5v1.165h-1.732v4.9h-1.295v-4.9H721.6V199.5Z" transform="translate(-604.892 -199.371)" fill="#e5b370"/><path d="M779.966,199.416v1.165h-3.156v1.343h2.476v1.165h-2.476v2.379H775.5V199.4h4.466Z" transform="translate(-650.07 -199.287)" fill="#e5b370"/><path d="M813.8,199.5h1.311v6.068H813.8Z" transform="translate(-682.172 -199.371)" fill="#e5b370"/><path d="M840.637,199.5v6.068H839.5l-2.994-3.851v3.851H835.2V199.5h1.133l2.994,3.868V199.5Z" transform="translate(-700.109 -199.371)" fill="#e5b370"/><path d="M884.549,199.416a3.038,3.038,0,0,1,2.217.874,3.047,3.047,0,0,1,0,4.3,3.065,3.065,0,0,1-2.217.874H882.3V199.4h2.249Zm-.955,1.181v3.722h.955a1.772,1.772,0,0,0,1.295-.534,1.819,1.819,0,0,0,.534-1.327,1.9,1.9,0,0,0-.518-1.327,1.721,1.721,0,0,0-1.295-.534Z" transform="translate(-739.587 -199.287)" fill="#e5b370"/><path d="M926.7,199.5h1.311v6.068H926.7Z" transform="translate(-776.802 -199.371)" fill="#e5b370"/><path d="M953.537,199.5v6.068H952.4l-2.994-3.851v3.851H948.1V199.5h1.133l2.994,3.868V199.5Z" transform="translate(-794.739 -199.371)" fill="#e5b370"/><path d="M998.855,201.78v2.249c-.016.032-.065.065-.113.129-.049.049-.162.146-.324.291a3.07,3.07,0,0,1-.534.356,3.831,3.831,0,0,1-.744.275,3.647,3.647,0,0,1-.939.129,3.274,3.274,0,0,1-2.346-.922,3.089,3.089,0,0,1,0-4.466,3.248,3.248,0,0,1,2.346-.922,3.313,3.313,0,0,1,.906.129,2.419,2.419,0,0,1,.712.307,4.209,4.209,0,0,1,.485.356,1.812,1.812,0,0,1,.307.307l.1.129-.825.825a.948.948,0,0,1-.065-.1,1.8,1.8,0,0,0-.194-.21,1.881,1.881,0,0,0-.34-.259,1.732,1.732,0,0,0-.485-.21,1.932,1.932,0,0,0-.6-.1,1.979,1.979,0,0,0-1.424.566,1.915,1.915,0,0,0-.566,1.424,1.979,1.979,0,0,0,.566,1.424,1.915,1.915,0,0,0,1.424.566,2.179,2.179,0,0,0,.744-.113,1.534,1.534,0,0,0,.469-.243l.13-.113v-.825H996.46v-.955h2.4Z" transform="translate(-832.289 -198.868)" fill="#e5b370"/><path d="M1040.11,229.794a.7.7,0,0,1,.971,0,.629.629,0,0,1,.21.453.574.574,0,0,1-.21.453.7.7,0,0,1-.971,0,.629.629,0,0,1-.21-.453A.574.574,0,0,1,1040.11,229.794Z" transform="translate(-871.683 -224.6)" fill="#e5b370"/></g></g></svg>